<svg width="50" height="50" viewBox="0 0 50 50" fill="none" xmlns="http://www.w3.org/2000/svg">
<g clip-path="url(#clip0)">
<path d="M45.9142 4.95279C42.8988 2.29327 38.835 1.15464 34.8768 1.86014C30.7735 2.59436 27.1794 5.04703 25 8.60044C22.8206 5.04703 19.2266 2.59436 15.1232 1.86014C11.1651 1.15571 7.10172 2.29425 4.08583 4.95279C0.459277 8.2765 -0.835518 13.8937 0.533402 20.3654C0.53848 20.3897 0.55479 20.4078 0.561919 20.4311C0.596784 20.5367 0.650205 20.6352 0.71974 20.7219C0.735463 20.7408 0.741909 20.7643 0.759781 20.7821C0.782829 20.7993 0.806756 20.8152 0.831562 20.8299C0.874045 20.8648 0.919946 20.8953 0.968581 20.9209C1.06146 20.9696 1.16293 21.0001 1.26733 21.0105C1.29497 21.0132 1.32124 21.0264 1.34887 21.0264C1.37866 21.0222 1.40825 21.0164 1.43736 21.0091C1.46538 21.0104 1.49341 21.0102 1.52134 21.0084C1.54576 21.0032 1.56383 20.987 1.58736 20.9799C1.6401 20.9633 1.69098 20.9413 1.73913 20.9143C1.78884 20.8883 1.83572 20.8571 1.87898 20.8213C1.89754 20.8058 1.92058 20.7995 1.93797 20.7821L4.86947 17.8514L4.87924 17.845C5.52185 17.2005 6.56302 17.1918 7.21637 17.8253C7.86973 18.4589 7.89307 19.4998 7.26862 20.162L2.46046 24.9702C2.24912 25.1802 2.16611 25.4873 2.24267 25.7753C2.31924 26.0633 2.54386 26.2885 2.83157 26.3658C3.11928 26.4432 3.42652 26.361 3.63728 26.1503L8.3928 21.3949C8.39934 21.3886 8.40804 21.3869 8.41458 21.3804C8.42698 21.368 8.43489 21.3531 8.4471 21.3406L11.3373 18.4504C11.3446 18.4435 11.3544 18.4415 11.3615 18.4344C12.0202 17.8028 13.0596 17.8028 13.7184 18.4344C14.3643 19.0825 14.3676 20.1301 13.7257 20.7823L13.7159 20.7888L4.84261 29.663C4.63215 29.8735 4.54992 30.1803 4.62698 30.4679C4.70403 30.7555 4.92865 30.98 5.21617 31.0571C5.50368 31.1341 5.81054 31.0519 6.02109 30.8415L13.7241 23.1474L13.7443 23.1272C14.4028 22.4938 15.4486 22.5094 16.0881 23.162C16.7276 23.8145 16.7219 24.8605 16.0753 25.506L14.3087 27.2729L14.3078 27.2737L7.86855 33.7133C7.658 33.9238 7.57586 34.2306 7.65292 34.5182C7.72997 34.8057 7.95459 35.0303 8.24211 35.1074C8.52962 35.1845 8.83648 35.1022 9.04703 34.8918L15.4872 28.4511C16.1382 27.8003 17.1936 27.8006 17.8444 28.4516C18.4952 29.1026 18.495 30.1579 17.8439 30.8087C17.8404 30.8123 17.8394 30.8172 17.8359 30.8208L11.3771 37.2796C11.3729 37.2838 11.3719 37.2896 11.3678 37.2938C11.3635 37.2981 11.3576 37.2996 11.3535 37.304C11.323 37.3447 11.2967 37.3882 11.2746 37.434C11.2423 37.4772 11.2142 37.5234 11.1908 37.572C11.1754 37.6236 11.165 37.6765 11.16 37.73C11.1261 37.8307 11.1284 37.9401 11.1662 38.0394C11.1734 38.0928 11.1859 38.1455 11.2034 38.1964C11.2294 38.2452 11.2599 38.2913 11.2949 38.3341C11.3183 38.3779 11.3459 38.4194 11.3772 38.458C11.3814 38.4622 11.3872 38.4633 11.3914 38.4673C11.3958 38.4715 11.3973 38.4774 11.4017 38.4815C15.4717 42.1375 19.8794 45.3991 24.5656 48.2225C24.8325 48.3853 25.168 48.3853 25.4348 48.2225C30.1209 45.3991 34.5287 42.1375 38.5987 38.4815C38.6032 38.4774 38.6045 38.4715 38.6089 38.4673C38.6131 38.4632 38.6189 38.4621 38.6231 38.458C38.6544 38.4194 38.6819 38.3779 38.7054 38.3341C38.7403 38.2914 38.771 38.2452 38.7969 38.1964C38.8235 38.0938 38.846 37.9901 38.864 37.8856C38.861 37.833 38.8531 37.781 38.8402 37.73C38.8352 37.6764 38.825 37.6235 38.8094 37.572C38.786 37.5234 38.7579 37.4772 38.7257 37.434C38.7036 37.3882 38.6771 37.3447 38.6466 37.304C38.6425 37.2995 38.6367 37.2981 38.6324 37.2938C38.6283 37.2896 38.6272 37.2838 38.623 37.2796L32.1643 30.8208C32.1608 30.8172 32.1598 30.8124 32.1563 30.8087C31.5053 30.1579 31.5051 29.1026 32.1558 28.4516C32.8066 27.8006 33.8619 27.8004 34.5129 28.4511L40.9531 34.8918C41.2785 35.2172 41.8061 35.2172 42.1316 34.8918C42.457 34.5664 42.457 34.0387 42.1316 33.7133L35.6929 27.2739L35.6915 27.2726L33.9249 25.5056C33.5037 25.0846 33.3392 24.4709 33.4932 23.8957C33.6473 23.3205 34.0965 22.871 34.6717 22.7168C35.247 22.5626 35.8608 22.727 36.2819 23.148L36.2918 23.1546L43.9792 30.8413C44.3051 31.1638 44.8305 31.1626 45.1547 30.8382C45.4789 30.514 45.4803 29.9887 45.1576 29.6628L37.4667 21.9792L37.4603 21.9695C37.455 21.9641 37.4484 21.9607 37.4431 21.9554L36.2842 20.7886L36.2818 20.7869C35.6316 20.1365 35.6317 19.0822 36.2822 18.4321C36.9326 17.782 37.9868 17.7821 38.637 18.4325C38.6441 18.4396 38.6539 18.4418 38.6611 18.4486L41.4724 21.2599C41.506 21.2999 41.5415 21.337 41.5859 21.3814L41.587 21.3828L41.5878 21.3835L46.3627 26.1502C46.5733 26.3609 46.8806 26.4432 47.1684 26.3657C47.4562 26.2884 47.6807 26.0632 47.7573 25.7752C47.8338 25.4872 47.7508 25.1802 47.5395 24.9701L42.7573 20.1985C42.7429 20.18 42.7264 20.163 42.7107 20.1455L42.7068 20.1391C42.1064 19.4815 42.1323 18.4671 42.7654 17.8409C43.4238 17.211 44.4615 17.211 45.1198 17.8409L48.0619 20.7821C48.0793 20.7995 48.1024 20.8058 48.1209 20.8213C48.2079 20.8911 48.3066 20.9448 48.4126 20.9798C48.4361 20.9869 48.4542 21.0031 48.4786 21.0083C48.5351 21.02 48.5926 21.026 48.6502 21.026L48.6514 21.0262C48.7526 21.0252 48.8533 21.0057 48.9475 20.9685C48.9734 20.9558 48.9986 20.9417 49.023 20.9264C49.0898 20.8941 49.1518 20.8528 49.2076 20.8039C49.2175 20.7948 49.2306 20.7917 49.2403 20.7821C49.2578 20.7646 49.2642 20.7413 49.2798 20.7226C49.3228 20.6725 49.3595 20.6172 49.389 20.5581C49.4078 20.5204 49.4236 20.4812 49.4361 20.4411C49.4475 20.4164 49.4577 20.3912 49.4665 20.3655C50.8355 13.8937 49.5407 8.2765 45.9142 4.95279ZM48.106 18.4696L46.2983 16.6624C44.9801 15.4037 42.9053 15.4037 41.5869 16.6624C41.1749 17.0777 40.879 17.5939 40.7286 18.1593L39.8233 17.254C39.8105 17.2411 39.7932 17.2368 39.7796 17.225C38.6252 16.0937 36.8238 15.9582 35.5131 16.904C34.2024 17.8499 33.7633 19.6021 34.4731 21.0542C33.3248 21.2731 32.3764 22.08 31.9765 23.1783C31.5765 24.2766 31.784 25.5045 32.5227 26.4104C31.9386 26.5517 31.4043 26.85 30.9776 27.2732C29.6857 28.5697 29.6792 30.6648 30.963 31.9692C30.9692 31.9758 30.971 31.9846 30.9776 31.991L36.8199 37.8333C33.1357 41.0655 29.1812 43.976 24.9999 46.5328C20.8186 43.9759 16.8641 41.0655 13.18 37.8333L19.0223 31.991C19.0288 31.9846 19.0306 31.9758 19.0368 31.9692C20.3207 30.6647 20.3141 28.5697 19.0223 27.2732C18.5952 26.8504 18.0609 26.5522 17.4769 26.4107C18.2153 25.5051 18.423 24.2779 18.0238 23.1798C17.6245 22.0817 16.6772 21.2744 15.5296 21.0545C16.1475 19.7824 15.8937 18.2588 14.8969 17.2556C13.5932 16.0091 11.5437 15.995 10.223 17.2234C10.2083 17.2361 10.1897 17.2408 10.1758 17.2548L9.26355 18.1671C9.11882 17.6003 8.82573 17.0824 8.41458 16.6664C7.12066 15.375 5.02807 15.3666 3.7238 16.6475C3.71707 16.6539 3.70818 16.6557 3.70164 16.6623L1.89383 18.4695C1.14134 13.2597 2.31465 8.83659 5.21207 6.18156C7.86133 3.88994 11.3987 2.90717 14.8505 3.50398C18.7691 4.15421 22.114 6.68286 24.2682 10.6252C24.4274 10.8753 24.7034 11.0268 24.9999 11.0268C25.2964 11.0268 25.5724 10.8754 25.7316 10.6252C27.8859 6.68286 31.2307 4.15431 35.1494 3.50398C38.601 2.90737 42.1383 3.89004 44.7878 6.18156C47.6852 8.83668 48.8586 13.2598 48.106 18.4696Z" fill="#2A5693" stroke="#2A5693"/>
</g>
<defs>
<clipPath id="clip0">
<rect width="50" height="50" fill="white"/>
</clipPath>
</defs>
</svg>
