<svg width="52" height="52" viewBox="0 0 52 52" fill="none" xmlns="http://www.w3.org/2000/svg">
<g clip-path="url(#clip0)">
<path d="M40.9114 10.7656C40.9114 7.23166 38.5988 1.625 32.3934 1.625C29.8437 1.625 27.699 2.82699 26 5.20295C24.301 2.82699 22.1562 1.625 19.6066 1.625C13.4011 1.625 11.0886 7.23166 11.0886 10.7656C11.0886 16.8587 15.844 20.67 22.3404 26.2252C23.295 27.0413 24.2821 27.8854 25.3345 28.7985C25.5254 28.9641 25.7627 29.0469 26 29.0469C26.2374 29.0469 26.4746 28.9641 26.6655 28.7985C27.7179 27.8854 28.705 27.0413 29.6596 26.2252C36.4608 20.4094 40.9114 16.7299 40.9114 10.7656ZM26 26.6882C25.1884 25.9878 24.4144 25.3259 23.6605 24.6812C16.8637 18.8695 13.1198 15.668 13.1198 10.7656C13.1198 7.44016 15.2954 3.65625 19.6066 3.65625C21.8566 3.65625 23.6563 4.94813 25.1089 7.60561C25.2869 7.93142 25.6287 8.13414 26 8.13414C26.3713 8.13414 26.7131 7.93142 26.8911 7.60561C28.3437 4.94813 30.1434 3.65625 32.3934 3.65625C36.6444 3.65625 38.8802 7.384 38.8802 10.7656C38.8802 15.668 35.1363 18.8695 28.3395 24.6813C27.5856 25.3259 26.8116 25.9878 26 26.6882Z" fill="#2A5693" stroke="#2A5693"/>
<path d="M7.29808 41.4491L12.1875 43.8934V49.3594C12.1875 49.9202 12.6423 50.375 13.2031 50.375H23.9688C24.5296 50.375 24.9844 49.9202 24.9844 49.3594V36.1004C24.9844 32.9887 22.6502 30.4083 19.5625 30.0988L19.4794 30.0898C17.6922 29.9107 14.5277 28.6883 13.2782 27.4388L10.9973 25.1589C10.2298 24.3915 9.20979 23.9688 8.125 23.9688V15.8438C8.125 13.6037 6.30256 11.7812 4.0625 11.7812C1.82244 11.7812 0 13.6037 0 15.8438V29.64C0 34.6383 2.82323 39.2111 7.29808 41.4491ZM2.03125 15.8438C2.03125 14.7237 2.94247 13.8125 4.0625 13.8125C5.18253 13.8125 6.09375 14.7237 6.09375 15.8438V24.5132C4.85509 25.2294 4.0625 26.5648 4.0625 28.0312C4.0625 29.116 4.4852 30.136 5.25271 30.9034L10.4537 36.1055C10.8502 36.5022 11.4933 36.5022 11.89 36.1056C12.2866 35.7091 12.2867 35.066 11.8901 34.6693L6.68911 29.4671C6.3051 29.0833 6.09375 28.5734 6.09375 28.0312C6.09375 27.1716 6.63782 26.4018 7.44778 26.1157C7.44788 26.1157 7.44809 26.1156 7.44819 26.1155C7.44839 26.1154 7.4487 26.1154 7.4489 26.1153C8.14948 25.8666 8.98046 26.0147 9.56109 26.5955L11.842 28.8754C14.1968 31.2303 19.3417 32.1163 19.3519 32.1191C21.4049 32.3249 22.953 34.0365 22.953 36.1004V48.3438H14.2186V43.2656C14.2186 42.8809 14.0012 42.5292 13.6572 42.3573L8.20645 39.6323C4.39755 37.7273 2.03125 33.8985 2.03125 29.64V15.8438Z" fill="#2A5693" stroke="#2A5693"/>
<path d="M46.6172 40.0156C47.1781 40.0156 47.6328 39.5609 47.6328 39C47.6328 38.4391 47.1781 37.9844 46.6172 37.9844C46.0563 37.9844 45.6016 38.4391 45.6016 39C45.6016 39.5609 46.0563 40.0156 46.6172 40.0156Z" fill="#2A5693" stroke="#2A5693"/>
<path d="M47.9375 11.7812C45.6974 11.7812 43.875 13.6037 43.875 15.8438V23.9688C42.7902 23.9688 41.7702 24.3915 41.0029 25.1589L38.7216 27.439C37.4723 28.6884 34.3078 29.9108 32.5127 30.0906L32.4455 30.0979C29.3498 30.4083 27.0156 32.9888 27.0156 36.1004V49.3594C27.0156 49.9202 27.4704 50.375 28.0312 50.375H38.7969C39.3577 50.375 39.8125 49.9202 39.8125 49.3594V43.8934L43.1366 42.2316C43.6383 41.9808 43.8417 41.3708 43.5909 40.8691C43.3401 40.3674 42.73 40.1638 42.2284 40.4148L38.3427 42.3573C37.9987 42.5292 37.7812 42.8809 37.7812 43.2656V48.3438H29.0469V36.1004C29.0469 34.0365 30.595 32.3249 32.6559 32.1183L32.7231 32.111C34.9261 31.8901 38.5737 30.4595 40.1577 28.8755L42.439 26.5954C43.0213 26.0129 43.8539 25.868 44.551 26.1153C44.5512 26.1154 44.5515 26.1154 44.5517 26.1155C44.5518 26.1155 44.552 26.1156 44.5521 26.1157C45.3622 26.4018 45.9062 27.1716 45.9062 28.0312C45.9062 28.5734 45.6949 29.0833 45.311 29.4673L40.11 34.6694C39.7134 35.066 39.7135 35.7091 40.1101 36.1057C40.5065 36.5023 41.1498 36.5023 41.5464 36.1056L46.7474 30.9036C47.5148 30.136 47.9375 29.116 47.9375 28.0312C47.9375 26.5648 47.1449 25.2294 45.9062 24.5132V15.8438C45.9062 14.7237 46.8175 13.8125 47.9375 13.8125C49.0575 13.8125 49.9688 14.7237 49.9688 15.8438V29.64C49.9688 31.4982 49.4998 33.343 48.6126 34.9749C48.3446 35.4678 48.5269 36.0843 49.0198 36.3523C49.5124 36.6202 50.1293 36.4381 50.3971 35.9451C51.4458 34.0163 52 31.8361 52 29.64V15.8438C52 13.6037 50.1776 11.7812 47.9375 11.7812Z" fill="#2A5693" stroke="#2A5693"/>
</g>
<defs>
<clipPath id="clip0">
<rect width="52" height="52" fill="white"/>
</clipPath>
</defs>
</svg>
